<svg width="245" height="59" viewBox="0 0 245 59" fill="none" xmlns="http://www.w3.org/2000/svg">
<g filter="url(#filter0_d)">
<path d="M22.1768 32.4844L22.333 33.0898L22.5088 32.4844L31.4541 7.5625H34.0908L23.5049 36H21.2002L10.6143 7.5625H13.2314L22.1768 32.4844ZM35.5557 25.1211C35.5557 23.0898 35.9463 21.2604 36.7275 19.6328C37.5218 18.0052 38.6351 16.7422 40.0674 15.8438C41.5127 14.9323 43.1468 14.4766 44.9697 14.4766C47.7822 14.4766 50.0609 15.4661 51.8057 17.4453C53.5505 19.4115 54.4229 22.0221 54.4229 25.2773V25.7656C54.4229 27.8099 54.0257 29.6523 53.2314 31.293C52.4502 32.9206 51.3434 34.1771 49.9111 35.0625C48.4788 35.9479 46.8447 36.3906 45.0088 36.3906C42.2093 36.3906 39.9307 35.4076 38.1729 33.4414C36.4281 31.4622 35.5557 28.8451 35.5557 25.5898V25.1211ZM37.8994 25.7656C37.8994 28.2917 38.5505 30.3685 39.8525 31.9961C41.1676 33.6107 42.8864 34.418 45.0088 34.418C47.1182 34.418 48.8239 33.6107 50.126 31.9961C51.4411 30.3685 52.0986 28.2266 52.0986 25.5703V25.1211C52.0986 23.5065 51.7992 22.0286 51.2002 20.6875C50.6012 19.3464 49.7614 18.3112 48.6807 17.582C47.5999 16.8398 46.363 16.4688 44.9697 16.4688C42.8864 16.4688 41.1872 17.2891 39.8721 18.9297C38.557 20.5573 37.8994 22.6927 37.8994 25.3359V25.7656ZM58.3291 25.2383C58.3291 21.931 59.0583 19.3138 60.5166 17.3867C61.988 15.4466 63.9801 14.4766 66.4932 14.4766C69.3708 14.4766 71.5583 15.6224 73.0557 17.9141L73.1729 14.8672H75.3604V35.5703C75.3604 38.2917 74.5986 40.4466 73.0752 42.0352C71.5518 43.6237 69.488 44.418 66.8838 44.418C65.4124 44.418 64.0062 44.0859 62.665 43.4219C61.3369 42.7708 60.2887 41.8984 59.5205 40.8047L60.8291 39.3984C62.4827 41.4297 64.4489 42.4453 66.7275 42.4453C68.6807 42.4453 70.2041 41.8659 71.2979 40.707C72.3916 39.5612 72.958 37.9661 72.9971 35.9219V33.2656C71.4997 35.349 69.3187 36.3906 66.4541 36.3906C64.0062 36.3906 62.04 35.4141 60.5557 33.4609C59.0713 31.5078 58.3291 28.8711 58.3291 25.5508V25.2383ZM60.6924 25.6484C60.6924 28.3438 61.2327 30.4727 62.3135 32.0352C63.3942 33.5846 64.9176 34.3594 66.8838 34.3594C69.7614 34.3594 71.7992 33.0703 72.9971 30.4922V20.668C72.4502 19.3138 71.6624 18.2852 70.6338 17.582C69.6051 16.8659 68.3682 16.5078 66.9229 16.5078C64.9567 16.5078 63.4268 17.2826 62.333 18.832C61.2393 20.3685 60.6924 22.6406 60.6924 25.6484ZM95.0479 33.3242C93.6416 35.3685 91.3955 36.3906 88.3096 36.3906C86.057 36.3906 84.3447 35.7396 83.1729 34.4375C82.001 33.1224 81.402 31.1823 81.376 28.6172V14.8672H83.7002V28.3242C83.7002 32.3477 85.3278 34.3594 88.583 34.3594C91.9684 34.3594 94.1104 32.9596 95.0088 30.1602V14.8672H97.3525V36H95.0869L95.0479 33.3242ZM111.63 36.3906C109.833 36.3906 108.205 35.9479 106.747 35.0625C105.302 34.1771 104.175 32.9466 103.368 31.3711C102.561 29.7826 102.157 28.0052 102.157 26.0391V25.1992C102.157 23.168 102.548 21.3385 103.329 19.7109C104.123 18.0833 105.224 16.8073 106.63 15.8828C108.036 14.9453 109.56 14.4766 111.2 14.4766C113.765 14.4766 115.797 15.3555 117.294 17.1133C118.804 18.8581 119.56 21.2474 119.56 24.2812V25.5898H104.481V26.0391C104.481 28.4349 105.165 30.4336 106.532 32.0352C107.912 33.6237 109.644 34.418 111.728 34.418C112.978 34.418 114.078 34.1901 115.028 33.7344C115.992 33.2786 116.864 32.5495 117.646 31.5469L119.11 32.6602C117.392 35.1471 114.898 36.3906 111.63 36.3906ZM111.2 16.4688C109.442 16.4688 107.958 17.1133 106.747 18.4023C105.549 19.6914 104.82 21.4232 104.56 23.5977H117.235V23.3438C117.17 21.3125 116.591 19.6589 115.497 18.3828C114.403 17.1068 112.971 16.4688 111.2 16.4688ZM150.478 29.0078C150.478 27.4323 149.924 26.1888 148.817 25.2773C147.711 24.3529 145.686 23.4805 142.743 22.6602C139.8 21.8268 137.652 20.9219 136.298 19.9453C134.371 18.5651 133.407 16.7552 133.407 14.5156C133.407 12.3411 134.299 10.5768 136.083 9.22266C137.88 7.85547 140.172 7.17188 142.958 7.17188C144.846 7.17188 146.532 7.53646 148.017 8.26562C149.514 8.99479 150.673 10.0104 151.493 11.3125C152.313 12.6146 152.724 14.0664 152.724 15.668H150.302C150.302 13.7279 149.638 12.1719 148.31 11C146.981 9.8151 145.198 9.22266 142.958 9.22266C140.784 9.22266 139.052 9.71094 137.763 10.6875C136.474 11.651 135.829 12.9141 135.829 14.4766C135.829 15.9219 136.409 17.1003 137.567 18.0117C138.726 18.9232 140.582 19.7305 143.134 20.4336C145.686 21.1237 147.619 21.8464 148.935 22.6016C150.25 23.3438 151.239 24.2357 151.903 25.2773C152.567 26.319 152.899 27.5495 152.899 28.9688C152.899 31.2083 152.001 33.0052 150.204 34.3594C148.42 35.7135 146.063 36.3906 143.134 36.3906C141.129 36.3906 139.286 36.0326 137.606 35.3164C135.94 34.6003 134.67 33.5977 133.798 32.3086C132.938 31.0195 132.509 29.5417 132.509 27.875H134.911C134.911 29.8802 135.66 31.4622 137.157 32.6211C138.655 33.7799 140.647 34.3594 143.134 34.3594C145.347 34.3594 147.125 33.8711 148.466 32.8945C149.807 31.918 150.478 30.6224 150.478 29.0078ZM161.181 9.45703V14.8672H165.556V16.7812H161.181V30.8633C161.181 32.0352 161.389 32.9076 161.806 33.4805C162.235 34.0534 162.945 34.3398 163.935 34.3398C164.325 34.3398 164.957 34.2747 165.829 34.1445L165.927 36.0586C165.315 36.2799 164.481 36.3906 163.427 36.3906C161.825 36.3906 160.66 35.9284 159.931 35.0039C159.201 34.0664 158.837 32.6927 158.837 30.8828V16.7812H154.95V14.8672H158.837V9.45703H161.181ZM177.099 32.6406L183.271 14.8672H185.79L176.767 39.5938L176.298 40.6875C175.139 43.2526 173.349 44.5352 170.927 44.5352C170.367 44.5352 169.768 44.444 169.13 44.2617L169.11 42.3281L170.321 42.4453C171.467 42.4453 172.392 42.1589 173.095 41.5859C173.811 41.026 174.416 40.056 174.911 38.6758L175.946 35.8242L167.978 14.8672H170.536L177.099 32.6406ZM192.04 36H189.696V6H192.04V36ZM206.591 36.3906C204.794 36.3906 203.166 35.9479 201.708 35.0625C200.263 34.1771 199.136 32.9466 198.329 31.3711C197.522 29.7826 197.118 28.0052 197.118 26.0391V25.1992C197.118 23.168 197.509 21.3385 198.29 19.7109C199.084 18.0833 200.185 16.8073 201.591 15.8828C202.997 14.9453 204.521 14.4766 206.161 14.4766C208.726 14.4766 210.757 15.3555 212.255 17.1133C213.765 18.8581 214.521 21.2474 214.521 24.2812V25.5898H199.442V26.0391C199.442 28.4349 200.126 30.4336 201.493 32.0352C202.873 33.6237 204.605 34.418 206.688 34.418C207.938 34.418 209.039 34.1901 209.989 33.7344C210.953 33.2786 211.825 32.5495 212.606 31.5469L214.071 32.6602C212.353 35.1471 209.859 36.3906 206.591 36.3906ZM206.161 16.4688C204.403 16.4688 202.919 17.1133 201.708 18.4023C200.51 19.6914 199.781 21.4232 199.521 23.5977H212.196V23.3438C212.131 21.3125 211.552 19.6589 210.458 18.3828C209.364 17.1068 207.932 16.4688 206.161 16.4688ZM231.728 30.6289C231.728 29.4701 231.259 28.5391 230.321 27.8359C229.397 27.1328 227.997 26.5859 226.122 26.1953C224.247 25.7917 222.789 25.3359 221.747 24.8281C220.718 24.3073 219.95 23.6758 219.442 22.9336C218.948 22.1914 218.7 21.293 218.7 20.2383C218.7 18.5716 219.397 17.1979 220.79 16.1172C222.183 15.0234 223.967 14.4766 226.142 14.4766C228.498 14.4766 230.386 15.0625 231.806 16.2344C233.238 17.3932 233.954 18.9102 233.954 20.7852H231.61C231.61 19.5482 231.09 18.5195 230.048 17.6992C229.019 16.8789 227.717 16.4688 226.142 16.4688C224.605 16.4688 223.368 16.8138 222.431 17.5039C221.506 18.181 221.044 19.0664 221.044 20.1602C221.044 21.2148 221.428 22.0352 222.196 22.6211C222.978 23.194 224.39 23.7214 226.435 24.2031C228.492 24.6849 230.028 25.1992 231.044 25.7461C232.073 26.293 232.834 26.9505 233.329 27.7188C233.824 28.487 234.071 29.418 234.071 30.5117C234.071 32.2956 233.349 33.7214 231.903 34.7891C230.471 35.8568 228.596 36.3906 226.278 36.3906C223.817 36.3906 221.819 35.7982 220.282 34.6133C218.759 33.4154 217.997 31.9049 217.997 30.082H220.341C220.432 31.4492 221.005 32.5169 222.06 33.2852C223.127 34.0404 224.534 34.418 226.278 34.418C227.906 34.418 229.221 34.0599 230.224 33.3438C231.226 32.6276 231.728 31.7227 231.728 30.6289Z" fill="white"/>
</g>
<defs>
<filter id="filter0_d" x="0.614258" y="0" width="243.457" height="58.5352" filterUnits="userSpaceOnUse" color-interpolation-filters="sRGB">
<feFlood flood-opacity="0" result="BackgroundImageFix"/>
<feColorMatrix in="SourceAlpha" type="matrix" values="0 0 0 0 0 0 0 0 0 0 0 0 0 0 0 0 0 0 127 0"/>
<feOffset dy="4"/>
<feGaussianBlur stdDeviation="5"/>
<feColorMatrix type="matrix" values="0 0 0 0 0 0 0 0 0 0 0 0 0 0 0 0 0 0 0.25 0"/>
<feBlend mode="normal" in2="BackgroundImageFix" result="effect1_dropShadow"/>
<feBlend mode="normal" in="SourceGraphic" in2="effect1_dropShadow" result="shape"/>
</filter>
</defs>
</svg>
